<?xml version="1.0" encoding="UTF-8"?>
<svg id="Camada_1" xmlns="http://www.w3.org/2000/svg" version="1.1" viewBox="0 0 1745.5 636.3">
  <!-- Generator: Adobe Illustrator 29.1.0, SVG Export Plug-In . SVG Version: 2.1.0 Build 142)  -->
  <g>
    <path d="M1744.6,211.7l-48.9.5c-10.6,30.1-39.5,51.5-74.4,51.5s-25.1-3.2-36.1-8.7c-20.6-12.5-33.1-33.6-33.1-33.6-5-10.5-8-22.6-8-34.6,0-44.6,34.1-79.2,77.2-79.2s26.1,3.5,36.1,8.5l-70.6,70.6,34,32.5,104.3-104.6c-22-32.1-59.6-53.6-103.8-53.6-68.7,0-124.3,55.6-124.3,125.8s55.6,124.3,124.3,124.3,111.7-43,123.3-99.4h0Z"/>
    <path d="M497.4,211.7l-48.9.5c-10.6,30.1-39.5,51.5-74.4,51.5s-25.1-3.2-36.1-8.7c-20.6-12.5-33.1-33.6-33.1-33.6-5-10.5-8-22.6-8-34.6,0-44.6,34.1-79.2,77.2-79.2s26.1,3.5,36.1,8.5l-70.6,70.6,34,32.5,104.3-104.6c-22-32.1-59.6-53.6-103.8-53.6-68.7,0-124.3,55.6-124.3,125.8s55.6,124.3,124.3,124.3,111.7-43,123.3-99.4h0Z"/>
    <path d="M124.9,61c-29.5,0-57,10.5-77.9,27.5v-27.5H0v249.8h47v-127.9c1.5-41.5,36-74.9,77.9-74.9s77.9,35,77.9,77.9v124.9h47v-124.9c0-69-56-124.9-124.9-124.9h0Z"/>
    <path d="M622.2,263.6c-14.7-.2-28.4-4.2-40.1-11.2-22.6-13.6-37.8-38.2-37.8-66.6v-78.3h78.4v-46.5h-78.4V0h-46.9v186.3c0,69.4,55.4,124.8,124.8,124.8h0c.2,0,.3,0,.5,0v-47.4c-.2,0-.3,0-.5,0h0Z"/>
    <path d="M919.4,185.8V0h-46.9v185.6c0-69.1-56.1-124.6-125.1-124.6s-124.6,55.6-124.6,124.6,56.1,125.1,124.6,125.1,56.6-11,78.1-28v28.4c-.5,43-35,75-78.1,75v47c68.6,0,124.6-53.5,125.1-122v-125.3c0,69.4,56.4,125.3,125.3,125.3v-47.4c-42.9,0-78.4-34.4-78.4-77.9h0ZM669.8,185.6c0-43.5,34.5-78.1,77.6-78.1s78.1,34.5,78.1,78.1v.5c-.5,43-35,77.6-78.1,77.6s-77.6-34.5-77.6-78.1h0Z"/>
    <path d="M1497,185.8c0-68.4-55.9-124.3-124.8-124.3s-56.9,10.5-77.9,27.5V0h-46.9v311.1h46.9v-27.2c21.4,17.1,48.4,27.2,77.9,27.2,68.9,0,124.8-55.4,124.8-125.3h0ZM1294.3,185.5v-.5c0-42.9,34.9-77.4,77.9-77.4s77.9,34.9,77.9,77.9-34.9,78.4-77.9,78.4-77.9-34.4-77.9-78.4Z"/>
    <path d="M1122.6,61.5c-68.9,0-124.8,55.9-124.8,124.8s55.9,124.8,124.8,124.8,124.8-55.9,124.8-124.8-55.9-124.8-124.8-124.8h0ZM1122.6,107.4c42.9,0,77.9,34.9,77.9,77.9s-34.9,78.4-77.9,78.4-77.9-35.4-77.9-78.4,34.9-77.9,77.9-77.9Z"/>
  </g>
  <g>
    <path d="M23.9,537.8v43c0,3.5.8,6.1,2.3,7.5,1.5,1.5,4.1,2.2,7.9,2.2h8.9v10.3h-10.9c-6.8,0-11.8-1.5-15.2-4.7-3.4-3.1-5.1-8.2-5.1-15.3v-43H2.3v-10h9.5v-18.4h12.1v18.4h19.1v10h-19.1Z"/>
    <path d="M123.8,568.9h-58.4c.4,7.2,2.9,12.8,7.4,16.9,4.5,4,9.9,6.1,16.3,6.1s9.6-1.2,13.1-3.7c3.5-2.4,6-5.7,7.4-9.8h13.1c-1.9,7-5.9,12.7-11.7,17.1-5.9,4.4-13.2,6.6-21.8,6.6s-13.1-1.5-18.6-4.7c-5.5-3.1-9.8-7.5-12.9-13.3s-4.7-12.4-4.7-19.9,1.5-14.2,4.5-19.9c3-5.7,7.3-10.1,12.7-13.1,5.5-3.1,11.8-4.6,18.9-4.6s13.1,1.5,18.4,4.5,9.4,7.2,12.3,12.5c2.9,5.3,4.3,11.3,4.3,17.9s-.1,4.8-.4,7.3h0ZM108.6,547.1c-2-3.3-4.8-5.9-8.3-7.6-3.5-1.7-7.4-2.6-11.7-2.6-6.1,0-11.3,2-15.7,5.9-4.3,3.9-6.8,9.3-7.4,16.3h46.1c0-4.6-1-8.6-3.1-11.9h0Z"/>
    <path d="M140.2,544.4c3-5.6,7.2-10,12.6-13.1s11.5-4.7,18.5-4.7,16.4,2.2,22.2,6.5c5.8,4.3,9.7,10.4,11.5,18.1h-13.1c-1.2-4.4-3.7-8-7.3-10.5-3.6-2.6-8.1-3.9-13.4-3.9s-12.5,2.4-16.8,7.1c-4.3,4.8-6.4,11.5-6.4,20.2s2.1,15.6,6.4,20.4c4.3,4.8,9.9,7.2,16.8,7.2s9.8-1.2,13.3-3.7c3.6-2.5,6-6,7.3-10.7h13.1c-2,7.5-5.9,13.4-11.7,17.9-5.9,4.5-13.2,6.7-22,6.7s-13.1-1.5-18.5-4.7c-5.4-3.1-9.6-7.5-12.6-13.2-3-5.7-4.5-12.3-4.5-20s1.5-14.2,4.5-19.8h0Z"/>
    <path d="M272.3,530c4.4,2.3,7.9,5.9,10.5,10.6,2.5,4.7,3.8,10.4,3.8,17.2v43h-12v-41.3c0-7.3-1.8-12.9-5.5-16.7-3.6-3.9-8.6-5.8-14.9-5.8s-11.5,2-15.3,6-5.7,9.8-5.7,17.5v40.4h-12.1v-98.6h12.1v36c2.4-3.7,5.7-6.6,9.9-8.7,4.2-2,8.9-3.1,14.2-3.1s10.5,1.2,14.9,3.5h0Z"/>
    <path d="M371.7,537.8h-15.3v63h-12.1v-63h-9.5v-10h9.5v-5.2c0-8.2,2.1-14.1,6.3-17.9,4.2-3.8,11-5.7,20.3-5.7v10.1c-5.3,0-9.1,1-11.3,3.1-2.2,2.1-3.3,5.5-3.3,10.3v5.2h15.3v10h0Z"/>
    <path d="M399.1,597.4c-5.5-3.1-9.9-7.5-13.1-13.3s-4.7-12.4-4.7-19.9,1.6-14.1,4.9-19.8,7.7-10.1,13.3-13.2c5.6-3.1,11.9-4.6,18.8-4.6s13.2,1.5,18.8,4.6c5.6,3.1,10,7.4,13.3,13.1,3.2,5.7,4.9,12.3,4.9,19.9s-1.7,14.2-5,19.9-7.8,10.2-13.5,13.3-12,4.7-18.9,4.7-13-1.5-18.6-4.7h0ZM429.9,588.3c3.8-2,6.9-5.1,9.3-9.2,2.4-4.1,3.5-9.1,3.5-14.9s-1.2-10.8-3.5-14.9c-2.3-4.1-5.3-7.1-9.1-9.1s-7.8-3-12.1-3-8.5,1-12.2,3c-3.7,2-6.6,5-8.9,9.1-2.2,4.1-3.3,9.1-3.3,14.9s1.1,11,3.3,15.1c2.2,4.1,5.1,7.1,8.7,9.1,3.6,2,7.6,3,12,3s8.4-1,12.3-3.1h0Z"/>
    <path d="M492.3,530c4-2.3,8.8-3.5,14.5-3.5v12.5h-3.2c-13.6,0-20.4,7.4-20.4,22.1v39.7h-12.1v-73h12.1v11.9c2.1-4.2,5.2-7.4,9.1-9.7h0Z"/>
    <path d="M620.6,534.2c5.2,5.6,7.7,13.4,7.7,23.2v43.4h-22.7v-40.4c0-5-1.3-8.8-3.9-11.6-2.6-2.8-6-4.1-10.4-4.1s-7.8,1.4-10.4,4.1c-2.6,2.8-3.9,6.6-3.9,11.6v40.4h-22.8v-98.6h22.8v34.2c2.3-3.3,5.5-5.9,9.5-7.9s8.5-2.9,13.5-2.9c8.5,0,15.4,2.8,20.5,8.5h0Z"/>
    <path d="M720.1,526.5l-46.6,109.7h-24.5l17.1-37.8-30.2-71.8h25.5l17.2,46.5,17.1-46.5h24.7Z"/>
    <path d="M760.4,528.6c4-2.1,8.6-3.2,13.7-3.2s11.7,1.6,16.7,4.7c5,3.1,8.9,7.5,11.8,13.3,2.9,5.8,4.3,12.5,4.3,20.1s-1.4,14.4-4.3,20.2-6.8,10.3-11.8,13.5c-5,3.2-10.5,4.7-16.7,4.7s-9.8-1-13.7-3.1-7-4.9-9.2-8.3v10.4h-22.8v-98.6h22.8v34.8c2.1-3.5,5.2-6.3,9.2-8.4ZM779,550.1c-3.2-3.2-7-4.9-11.7-4.9s-8.4,1.7-11.5,4.9c-3.2,3.3-4.7,7.8-4.7,13.5s1.6,10.2,4.7,13.5c3.2,3.3,7,4.9,11.5,4.9s8.4-1.7,11.6-5,4.8-7.8,4.8-13.5-1.6-10.2-4.7-13.4h0Z"/>
    <path d="M851.7,529.2c4-2.3,8.4-3.5,13.3-3.5v24.1h-6.3c-5.7,0-10,1.2-12.8,3.7-2.8,2.5-4.3,6.7-4.3,12.9v34.5h-22.8v-74.4h22.8v12.4c2.7-4.1,6-7.3,10-9.7h0Z"/>
    <path d="M877.6,515.2c-2.5-2.3-3.8-5.3-3.8-8.7s1.3-6.5,3.8-8.9c2.5-2.4,5.8-3.5,9.8-3.5s7.1,1.2,9.7,3.5c2.5,2.4,3.8,5.3,3.8,8.9s-1.3,6.4-3.8,8.7c-2.5,2.3-5.8,3.5-9.7,3.5s-7.3-1.2-9.8-3.5ZM898.7,526.5v74.4h-22.8v-74.4h22.8Z"/>
    <path d="M915,543.4c2.9-5.8,6.8-10.2,11.8-13.3,5-3.1,10.5-4.7,16.7-4.7s9.3,1,13.4,3.1c4,2,7.2,4.8,9.5,8.3v-34.5h22.8v98.6h-22.8v-10.7c-2.1,3.5-5.2,6.4-9.1,8.5s-8.5,3.2-13.8,3.2-11.7-1.6-16.7-4.7c-5-3.2-8.9-7.6-11.8-13.5-2.9-5.8-4.3-12.5-4.3-20.2s1.4-14.3,4.3-20.1h0ZM961.7,550.2c-3.2-3.3-7-4.9-11.5-4.9s-8.4,1.6-11.5,4.9c-3.2,3.2-4.7,7.7-4.7,13.4s1.6,10.2,4.7,13.5c3.2,3.3,7,5,11.5,5s8.4-1.6,11.5-4.9c3.2-3.3,4.7-7.8,4.7-13.5s-1.6-10.2-4.7-13.5Z"/>
    <path d="M1140.7,526.5l-20.1,74.4h-25.2l-11.7-48.2-12.1,48.2h-25.1l-20.3-74.4h22.8l10.5,53.2,12.5-53.2h24.1l12.7,52.9,10.4-52.9h21.4Z"/>
    <path d="M1163.5,597.2c-5.8-3.1-10.4-7.5-13.7-13.3-3.3-5.8-5-12.5-5-20.3s1.7-14.4,5.1-20.2c3.4-5.8,8-10.3,13.9-13.4,5.9-3.1,12.4-4.7,19.7-4.7s13.9,1.6,19.7,4.7c5.9,3.1,10.5,7.6,13.9,13.4s5.1,12.5,5.1,20.2-1.7,14.4-5.1,20.2-8.1,10.3-14,13.4-12.5,4.7-19.8,4.7-13.8-1.5-19.7-4.7h0ZM1194.3,577.4c3.1-3.2,4.6-7.8,4.6-13.7s-1.5-10.5-4.5-13.7c-3-3.2-6.6-4.8-11-4.8s-8.1,1.6-11.1,4.7c-2.9,3.2-4.4,7.8-4.4,13.8s1.4,10.5,4.3,13.7c2.9,3.2,6.5,4.8,10.9,4.8s8.1-1.6,11.1-4.8h0Z"/>
    <path d="M1267,529.2c4-2.3,8.4-3.5,13.3-3.5v24.1h-6.3c-5.7,0-9.9,1.2-12.8,3.7-2.8,2.5-4.3,6.7-4.3,12.9v34.5h-22.8v-74.4h22.8v12.4c2.7-4.1,6-7.3,10-9.7h0Z"/>
    <path d="M1336.7,600.8l-22.7-31.2v31.2h-22.8v-98.6h22.8v54.5l22.5-30.2h28.1l-30.9,37.3,31.2,37h-28.2Z"/>
    <path d="M1405.6,528.6c3.9-2.1,8.5-3.2,13.7-3.2s11.7,1.6,16.7,4.7c5,3.1,8.9,7.5,11.8,13.3,2.9,5.8,4.3,12.5,4.3,20.1s-1.4,14.4-4.3,20.2c-2.9,5.8-6.8,10.3-11.8,13.5-5,3.2-10.5,4.7-16.7,4.7s-9.7-1.1-13.7-3.2c-3.9-2.1-7-4.9-9.3-8.3v45.8h-22.8v-109.8h22.8v10.5c2.2-3.5,5.3-6.3,9.2-8.4h0ZM1424.2,550.1c-3.2-3.2-7-4.9-11.7-4.9s-8.4,1.7-11.5,4.9c-3.2,3.3-4.7,7.8-4.7,13.5s1.6,10.2,4.7,13.5c3.2,3.3,7,4.9,11.5,4.9s8.4-1.7,11.6-5,4.8-7.8,4.8-13.5-1.6-10.2-4.7-13.4Z"/>
    <path d="M1486.9,502.2v98.6h-22.8v-98.6h22.8Z"/>
    <path d="M1503.2,543.4c2.9-5.8,6.8-10.2,11.8-13.3,5-3.1,10.5-4.7,16.7-4.7s9.8,1.1,13.8,3.2c3.9,2.1,7,4.9,9.1,8.4v-10.5h22.8v74.4h-22.8v-10.5c-2.2,3.5-5.3,6.3-9.3,8.4s-8.6,3.2-13.8,3.2-11.6-1.6-16.5-4.7c-5-3.2-8.9-7.6-11.8-13.5-2.9-5.8-4.3-12.5-4.3-20.2s1.4-14.3,4.3-20.1h0ZM1549.8,550.2c-3.2-3.3-7-4.9-11.5-4.9s-8.4,1.6-11.5,4.9c-3.2,3.2-4.7,7.7-4.7,13.4s1.6,10.2,4.7,13.5c3.2,3.3,7,5,11.5,5s8.4-1.6,11.5-4.9c3.2-3.3,4.7-7.8,4.7-13.5s-1.6-10.2-4.7-13.5Z"/>
    <path d="M1594.1,543.4c3.2-5.8,7.6-10.2,13.2-13.3,5.6-3.1,12.1-4.7,19.4-4.7s17.1,2.5,23.4,7.3c6.3,4.9,10.4,11.8,12.3,20.7h-24.2c-2-5.7-6-8.5-11.9-8.5s-7.5,1.6-10,4.9c-2.5,3.2-3.7,7.9-3.7,13.9s1.2,10.7,3.7,13.9c2.5,3.2,5.8,4.9,10,4.9s9.8-2.8,11.9-8.5h24.2c-2,8.7-6.1,15.5-12.4,20.5-6.3,5-14.1,7.5-23.3,7.5s-13.8-1.5-19.4-4.7-10-7.5-13.2-13.3c-3.2-5.8-4.7-12.5-4.7-20.3s1.6-14.5,4.7-20.2h0Z"/>
    <path d="M1744.2,569.1h-51.6c.3,4.6,1.8,8.2,4.5,10.6,2.6,2.5,5.8,3.7,9.7,3.7,5.7,0,9.6-2.4,11.9-7.2h24.2c-1.2,4.9-3.5,9.3-6.7,13.2s-7.3,7-12.2,9.2c-4.9,2.2-10.3,3.3-16.4,3.3s-13.8-1.5-19.5-4.7-10.1-7.5-13.3-13.3c-3.2-5.8-4.8-12.5-4.8-20.3s1.6-14.5,4.7-20.2,7.6-10.2,13.3-13.3c5.7-3.1,12.2-4.7,19.6-4.7s13.6,1.5,19.2,4.5,10,7.3,13.1,12.9c3.2,5.6,4.7,12.1,4.7,19.6s-.1,4.3-.4,6.7h0ZM1721.3,556.5c0-3.9-1.3-7-4-9.3-2.7-2.3-6-3.5-10-3.5s-7,1.1-9.7,3.3c-2.6,2.2-4.2,5.4-4.9,9.5h28.5,0Z"/>
  </g>
</svg>